<?xml version="1.0" encoding="utf-8"?>
<!-- Generator: Adobe Illustrator 15.1.0, SVG Export Plug-In . SVG Version: 6.00 Build 0)  -->
<!DOCTYPE svg PUBLIC "-//W3C//DTD SVG 1.1//EN" "http://www.w3.org/Graphics/SVG/1.1/DTD/svg11.dtd" [
	<!ENTITY ns_extend "http://ns.adobe.com/Extensibility/1.0/">
	<!ENTITY ns_ai "http://ns.adobe.com/AdobeIllustrator/10.0/">
	<!ENTITY ns_graphs "http://ns.adobe.com/Graphs/1.0/">
	<!ENTITY ns_vars "http://ns.adobe.com/Variables/1.0/">
	<!ENTITY ns_imrep "http://ns.adobe.com/ImageReplacement/1.0/">
	<!ENTITY ns_sfw "http://ns.adobe.com/SaveForWeb/1.0/">
	<!ENTITY ns_custom "http://ns.adobe.com/GenericCustomNamespace/1.0/">
	<!ENTITY ns_adobe_xpath "http://ns.adobe.com/XPath/1.0/">
]>
<svg version="1.1" id="Capa_1" xmlns:x="&ns_extend;" xmlns:i="&ns_ai;" xmlns:graph="&ns_graphs;"
	 xmlns="http://www.w3.org/2000/svg" xmlns:xlink="http://www.w3.org/1999/xlink" x="0px" y="0px" width="1222.5px" height="612px"
	 viewBox="0 0 1222.5 612" enable-background="new 0 0 1222.5 612" xml:space="preserve">
<metadata>
	<sfw  xmlns="&ns_sfw;">
		<slices></slices>
		<sliceSourceBounds  height="258.802" width="1061.822" y="291.099" x="379.821" bottomLeftOrigin="true"></sliceSourceBounds>
	</sfw>
</metadata>
<g>
	<path fill="#FFFFFF" d="M275.403,256.281v153.029l121.832-23.12v-74.562c0-3.121,2.718-5.545,5.818-5.19l14.989,2.32
		c2.637,0.303,4.628,2.534,4.628,5.189v86.619c0,2.463-1.719,4.59-4.127,5.107l-133.365,28.676c-6.444,1.385-13.109,1.4-19.56,0.044
		l-131.935-27.752c-2.368-0.498-4.084-2.558-4.146-4.977l-2.279-87.97c-0.072-2.759,2.016-5.097,4.764-5.339l112.071-9.847
		c1.944-0.17,3.629-1.411,4.373-3.214l16.883-41.003C267.528,249.002,275.403,250.56,275.403,256.281z M125.99,206.179
		l-35.168,75.173c-1.719,3.673,1.222,7.818,5.256,7.411l132.076-13.345c1.867-0.189,3.488-1.363,4.249-3.079l42.497-95.74
		l-145.122,26.655C128.117,203.56,126.706,204.649,125.99,206.179z M274.901,176.599l44.967,98.733
		c0.786,1.726,2.445,2.89,4.336,3.042l131.826,10.601c3.973,0.319,6.825-3.749,5.172-7.375l-34.381-75.371
		c-0.711-1.559-2.141-2.669-3.827-2.974L274.901,176.599z"/>
</g>
<g>
	<path fill="#FFFFFF" d="M585.091,408.686c-37.567,0-57.526-22.071-57.526-61.048v-16.437c0-38.977,19.959-61.049,57.526-61.049
		c13.384,0,28.177,2.818,28.177,2.818v29.116c0,0-17.61-1.879-28.177-1.879c-19.958,0-25.827,13.854-25.827,33.342v11.74
		c0,19.489,5.635,33.342,27.002,33.342c10.565,0,27.002-2.348,27.002-2.348v29.351C613.268,405.634,598.475,408.686,585.091,408.686
		z"/>
	<path fill="#FFFFFF" d="M720.105,406.338v-70.44h-51.657v70.44h-31.698V239.628h31.698v66.918h51.657v-66.918h31.698v166.709
		H720.105z"/>
	<path fill="#FFFFFF" d="M866.855,406.338l-6.34-18.784h-51.891l-6.34,18.784h-34.047L815.198,272.5h38.742l46.961,133.837H866.855z
		 M834.687,311.713l-15.967,46.49h31.698L834.687,311.713z"/>
	<path fill="#FFFFFF" d="M969.463,368.77h-20.428v37.568h-31.698V272.5h52.126c33.812,0,53.535,11.975,53.535,48.134
		C1022.998,356.795,1003.275,368.77,969.463,368.77z M967.115,300.677h-18.08v39.917h18.08c16.201,0,24.185-5.166,24.185-19.959
		C991.3,305.843,983.317,300.677,967.115,300.677z"/>
	<path fill="#FFFFFF" d="M1098.608,368.77h-20.428v37.568h-31.698V272.5h52.126c33.812,0,53.535,11.975,53.535,48.134
		C1152.143,356.795,1132.419,368.77,1098.608,368.77z M1096.26,300.677h-18.08v39.917h18.08c16.201,0,24.185-5.166,24.185-19.959
		C1120.445,305.843,1112.461,300.677,1096.26,300.677z"/>
</g>
</svg>
